<?xml version="1.0" encoding="UTF-8"?><svg id="Layer_1" xmlns="http://www.w3.org/2000/svg" viewBox="0 0 618 595.22"><defs><style>.cls-1{fill:#020202;}.cls-2{fill:#383838;}</style></defs><g><path class="cls-1" d="M410.37,326.26c-.77-5.18-46.75-275.77-48.71-287.29l-.02-.12c-.06-.23-1.52-5.74-6.53-6.75-2.68-.54-43.32-5.69-73.18-9.45-2.06-3.06-12.13-16.51-31.01-18.7C230.73,1.61,214.52,.02,214.36,0h-.12c-.19,0-4.66-.05-14.19,.85C190.61,1.74,28.69,14.98,26.98,15.12c-.28,.04-27.76,4.32-26.96,50.73,.78,45.16,5.96,168.97,6.01,170.2,.02,.57,2.58,56.77,40.65,74.15,1.87,.85,4.04,1.86,6.38,2.93,8.96,4.14,20.11,9.28,26.01,11.52,2.4,.91,5.61,1.5,9.1,1.5,3.35,0,6.95-.55,10.34-1.89l40.12-10.45c-3.33,15.53-5.52,25.75-5.97,27.86-.56,2.07-.63,6.43,3.09,8.12,3.54,1.61,92.15,42.58,93.04,42.99,.07,.04,1.39,.64,3.22,.64,.61,0,1.28-.07,1.98-.25,2.32-.61,28.1-9.44,29.27-9.84,.18-.07,4.36-1.78,5.7-6.62,.91-3.28,11.5-49.86,15.41-67.1l93.17,34.49c.87,.65,2.07,1.02,3.58,.64,2.63-.66,24.94-8.33,25.86-8.65,.21-.07,1.28-.46,2.09-1.51,1.06-1.35,2.04-3.4,1.31-8.33ZM200.32,3.74c8.77-.83,13.27-.84,13.83-.84,1.15,.11,16.93,1.67,36.44,3.94,14.51,1.68,23.6,10.76,27.33,15.32-14.72-1.85-26.04-3.26-27.41-3.43-.1,0-2.62-.14-11.67,.39-9.02,.53-28.53,2.86-28.62,2.87-.3,.01-7.37,.41-9.84,7.63-.78,2.28-9.31,41.2-20.07,90.84l-66.47,9.91c.07-.29,.14-.6,.17-.95,.47-4.53-.18-31.4-.67-37.33-.85-10.28-5.19-45.17-25.29-62.27-.34-.32-8.48-7.89-20.67-9.94-5.99-1.01-14.19-2.36-20.86-3.45C90.02,12.87,192.84,4.44,200.32,3.74Zm-24.67,138.21l-116.2,19.19v.04c-.76,.12-1.62,.38-2.37,.96-.9,.71-1.45,1.74-1.58,2.99-.34,3.26,.38,28.38,.44,30.42-.17,1.9,.88,5.73,6.08,7.41,5.5,1.78,21.23,7.26,21.39,7.32l.23,.08h.14c.22,.09,1.97,1.02,1.93,7.34-.06,8.71,.74,47.12,.75,47.44,0,.17-.48,16.91-9.49,17.47-.05,0-.11,0-.17,0-.54-.04-2.54-.25-5.8-1.44-3.02-1.1-22.56-9.03-22.73-9.1-.6-.26-14.68-6.71-16.61-31.03-2-25.26-3.59-101.19-3.6-101.97l-1.67-54.44c0-.08-.46-8.13,1.89-16.61,2.44-8.81,9.31-9.43,13.18-9.02,4.34,.46,17.14,3.13,22.45,4.25,3.44,.73,6.53,2.33,8.93,4.63,4.12,3.96,6.98,9.63,8.48,16.85,3.2,15.4,2.45,34.13,2.44,34.29-.19,3.05,1.31,9.28,8.32,10.97,7.58,1.83,15.44,3.66,15.46,3.66,.17,.05,1.2,.35,2.41,.22h0s69.69-10.38,69.69-10.38c-1.3,6.02-2.64,12.19-4,18.46Zm-95.55,180.01c-5.81-2.2-16.91-7.32-25.83-11.44-2.34-1.08-4.52-2.08-6.39-2.94C11.45,290.94,8.95,236.5,8.93,235.94c-.05-1.24-5.23-125.02-6.01-170.14C2.16,22.1,26.34,18.14,27.29,18c.2-.02,2.8-.23,7.23-.59,2.03,.33,21.1,3.43,32.36,5.33,11.29,1.9,19.08,9.12,19.22,9.24,19.8,16.85,23.75,53.23,24.34,60.35,.47,5.7,1.13,32.5,.68,36.79-.09,.82-.33,1.37-.74,1.64-.15,.1-.33,.17-.52,.21h-.03c-.56,.12-1.2,0-1.53-.1,0,0-7.92-1.84-15.55-3.68-6.37-1.54-6.12-7.72-6.11-8,0-.19,.78-19.27-2.5-35.03-1.62-7.81-4.75-13.98-9.31-18.35-2.79-2.68-6.36-4.54-10.34-5.38-5.35-1.13-18.28-3.82-22.74-4.3-8.16-.87-14.09,3.19-16.28,11.13-2.48,8.96-2.01,17.21-1.99,17.51l1.67,54.39c.02,.76,1.6,76.78,3.61,102.12,2.07,26.16,17.68,33.18,18.38,33.47,.81,.33,19.79,8.04,22.86,9.15,3.52,1.28,5.78,1.55,6.58,1.6,.18,.02,.36,.01,.55,0,11.66-.73,12.2-19.5,12.21-20.36,0-.39-.81-38.75-.75-47.43,.03-4.44-.77-7.51-2.38-9.12-.78-.79-1.57-1.03-2.01-1.1-1.61-.56-16.06-5.59-21.31-7.29-4.23-1.37-4.11-4.13-4.08-4.42v-.11s.01-.11,.01-.11c-.22-7.5-.73-27.53-.46-30.14,.06-.61,.3-.86,.48-1,.58-.46,1.64-.47,2.07-.44l40.69,12.36,.16,.04c11.32,2.04,10.58,11.34,10.54,11.73v.09s0,.09,0,.09c.01,.6,1.2,60.2,1.35,86.35,.14,24.14-6.34,42.99-16.11,46.9-6.19,2.48-13.39,1.95-17.46,.41Zm24.87-2.35c7.32-8.15,11.72-24.6,11.6-44.98-.15-25.79-1.31-84.09-1.35-86.33,.08-1.26,.36-12.33-12.83-14.75l-35.34-10.74,107.95-17.83c-12.83,59.31-27.38,127.04-35.67,165.67l-34.35,8.95Zm30.51,22.76c.66-3.06,65.51-305.59,67.64-311.81,1.82-5.32,7.01-5.66,7.33-5.68,.19-.02,19.62-2.34,28.55-2.87,6.1-.36,9.18-.41,10.47-.41,.55,0,.77,0,.77,0,.87,.11,65.47,8.18,92.61,11.73l-30.31,3.21c-.27,.04-6.68,.95-8.92,9.25-2,7.41-72.74,326.71-75.74,340.27-.21,.83-.35,1.92-.27,3-14.26-6.59-87.45-40.42-90.67-41.89-2.41-1.1-1.53-4.59-1.48-4.8Zm149.53-35.58c.29-1.29,.51-2.27,.65-2.85,.02-.11,.1-.19,.21-.22l78.68-21.82c.96,5.06,9.44,49.59,11.12,58.45l-90.66-33.56Zm121.78,26.02l-.09,.11c-.18,.24-.53,.4-.65,.44-7.99,2.75-23.64,8.09-25.64,8.59-.99,.25-1.43-.26-1.63-.73-.56-2.95-11.28-59.3-11.48-60.31-.18-.96-.67-1.47-1.05-1.72-.68-.46-1.37-.37-1.67-.31l-79.5,22.05c-1.13,.31-2,1.22-2.26,2.37h0c-1.6,7.05-15.64,68.93-16.67,72.67-.94,3.42-3.86,4.65-3.91,4.67-9.25,3.17-27.22,9.29-29,9.75-.72,.19-1.4,.18-1.95,.11-1.12-.45-.75-3.09-.59-3.77,.74-3.33,73.73-332.83,75.71-340.17,1.71-6.36,6.31-7.11,6.46-7.13l41.83-4.43c2.89,.72,3.98,4.12,4.1,4.54,1,5.87,47.93,282.03,48.69,287.15,.65,4.36-.32,5.6-.73,6.12Z"/><path class="cls-1" d="M334.52,87.3l-.03-.12c-.23-.89-1.02-1.8-2.19-1.71-.04,0-.08,0-.12,0-.02,0-.04,0-.06,0-.47,0-1.88,0-2.47,1.52-.28,.72-23.55,107.56-37.41,171.22-.12,.43-.44,1.88,.45,2.87,.27,.3,.83,.74,1.77,.74,.22,0,.46-.02,.72-.08,1.93-.4,62.29-16.1,65.14-16.84,.26-.06,.77-.25,1.15-.77,.24-.33,.49-.9,.36-1.72-.13-.76-26.2-148.81-27.31-155.11Zm-2.52,2.38c2.93,16.65,24.33,138.14,26.75,151.93l-56.22-16.97c9.95-45.68,26.65-122.3,29.48-134.96Zm-36.91,169.11c.28-1.27,2.98-13.69,6.82-31.31l52.72,15.91c-21.45,5.58-54.94,14.27-59.53,15.4Z"/><path class="cls-1" d="M189.33,319.22c-3.41,1.37-9.67,12.17-10.44,13.66-.89,1.71-1.8,2.28-2.21,2.14,0,0-.45-.54-.21-3.04,.2-2.05,1.77-9.26,3.19-15.33,.13-.57,.03-1.16-.29-1.66-.32-.49-.83-.84-1.4-.95l-4.53-.91c-.56-.12-1.13,.03-1.54,.39-.44,.38-.57,.88-.6,1.22-.45,1.64-3.96,14.61-4.01,18.97-.06,4.67,.43,7.84,3.21,11.2,3.09,3.74,8.23,2.96,10.25,1.46,2.53-1.88,9.48-14,9.77-14.52,.3-.53,.72-.85,1.25-.96,.54-.11,1.04,.05,1.18,.16,.64,.49,.11,3.9-.32,6.64l-.07,.45c-.44,2.84-1.09,6.32-1.62,9.11-.97,5.16-.99,5.32-.83,5.82,.23,.74,.91,1.05,1.24,1.2,.03,.01,2.94,1.19,4.63,1.19,.25,0,.48-.03,.66-.09,1.39-.35,1.82-1.17,3.23-8.92,2.18-11.95,2.57-19.77,1.16-23.23-1.98-4.83-8.76-5.17-11.69-3.99Zm7.69,26.7c-.76,4.19-1.2,5.91-1.43,6.6-.67-.12-1.81-.44-2.55-.7,.15-.93,.45-2.51,.74-4.05,.53-2.81,1.19-6.31,1.64-9.21l.07-.44c.73-4.73,1.22-7.85-.79-9.38-.88-.67-2.26-.95-3.51-.69-1.34,.27-2.48,1.11-3.19,2.36-2.9,5.07-7.63,12.62-8.98,13.63-.82,.61-4.27,1.47-6.29-.98-2.23-2.71-2.6-5.16-2.54-9.32,.05-3.6,2.89-14.46,3.73-17.56l2.75,.55c-.84,3.63-2.83,12.41-3.07,14.97-.12,1.24-.48,5.01,1.95,5.96,.81,.32,3.63,1,5.93-3.45,2.09-4.04,7.3-11.64,8.95-12.31,1.82-.73,6.71-.59,7.93,2.4,1.17,2.86,.7,10.53-1.32,21.61Z"/><path class="cls-1" d="M212.69,239.36c-2.55-.6-5.05-.35-6.68,.69-2.55,1.62-7.38,10.6-9.34,14.38-1.2,2.32-2.48,1.96-2.73,1.86-.16-.06-.63-.25-.42-2.49,.23-2.37,2.29-11.21,3.07-14.53l.18-.79c.13-.57,.03-1.16-.29-1.66-.32-.49-.83-.84-1.4-.95l-4.53-.91h0c-.56-.11-1.12,.03-1.53,.39-.45,.4-.58,.91-.6,1.25-.36,1.54-3.3,14.28-3.35,18.63,0,.52-.02,1.01-.03,1.48-.08,3.62-.14,6.24,2.41,9.34,3.05,3.7,8.87,2.64,11,1.06,2.48-1.84,8.25-12.47,9.11-14.42,.35-.8,.85-1.3,1.5-1.48,.6-.17,1.13,0,1.23,.07,.31,.28,.97,2.43,.05,8.38-.54,3.49-1.52,7.26-2.18,9.75-.68,2.59-.76,2.92-.6,3.47,.22,.71,.86,1,1.13,1.13,.25,.11,3.85,1.39,5.68,1.39,.3,0,.55-.03,.74-.11,.53-.23,1.77-.78,3.3-7.9,2.32-10.78,3.26-18.97,.31-23.93-1.17-1.97-3.37-3.46-6.04-4.09Zm2.9,27.42c-.76,3.55-1.4,5.09-1.71,5.7-.85-.15-2.36-.53-3.3-.84,.11-.43,.25-.96,.38-1.48,.67-2.55,1.67-6.41,2.24-10.05,1.41-9.16-.52-10.63-1.15-11.12-.92-.7-2.36-.93-3.69-.59-1.53,.4-2.76,1.51-3.47,3.13-1.1,2.52-6.57,12.07-8.18,13.26-1.02,.75-5.13,1.75-7.04-.57-1.87-2.27-1.83-3.99-1.75-7.43,.01-.48,.02-.98,.03-1.51,.05-3.59,2.39-14.11,3.1-17.25l2.72,.55v.04c-1.35,5.75-2.92,12.64-3.14,14.91-.29,3.05,.4,4.74,2.24,5.46,1.8,.71,4.54,.29,6.36-3.23,3.57-6.89,7.06-12.47,8.32-13.27,.94-.6,2.73-.72,4.45-.31,1.91,.45,3.45,1.46,4.22,2.76,2.62,4.4,1.23,13.1-.65,21.84Z"/><path class="cls-1" d="M227.56,83.77c3.85,3.18,9.1,.9,11.04-.71,1.58-1.31,5.14-7.11,8.64-12.93,.63-1.05,1.13-1.88,1.41-2.32,1.55-2.44,2.49-2.67,2.66-2.69,.07-.01,.21-.03,.41,.16,.74,1.12-.66,7.42-1.26,10.11l-.03,.14c-2.46,11.05-2.4,11.23-2.16,11.87,.17,.45,.51,.78,1.04,.99,.65,.25,3.42,.73,5.23,.73,.61,0,1.12-.05,1.39-.19,.96-.48,1.05-.91,1.66-3.67,.16-.71,.36-1.61,.62-2.77,2.27-9.97,4.23-20.77,1.58-25.3-1.26-2.15-3.87-3.64-6.99-3.99-2.75-.31-5.2,.37-6.55,1.82-2.25,2.39-8.35,12.94-9.79,16.14-.68,1.52-1.47,2.35-2.04,2.16l-.05-.02c-.06-.17-.2-.73-.14-2.29,.1-2.38,1.68-11.29,2.28-14.64l.15-.82c.1-.58-.03-1.16-.38-1.64-.34-.47-.87-.79-1.45-.88l-4.58-.66c-.56-.09-1.12,.09-1.51,.47-.42,.41-.52,.91-.54,1.25-.32,1.57-2.82,13.78-3.23,18.28l-.09,1c-.39,4.07-.73,7.59,2.67,10.4Zm.21-10.12l.1-1.01c.35-3.87,2.42-14.2,3.04-17.24l2.77,.4v.07c-.67,3.73-2.22,12.46-2.33,15.03-.12,2.79,.2,4.53,2.17,5.18,1.02,.34,3.62,.66,5.59-3.71,1.46-3.23,7.38-13.34,9.26-15.35,.7-.75,2.35-1.12,4.12-.92,2.18,.24,4.02,1.23,4.81,2.58,2.43,4.15-.83,18.48-1.9,23.19-.27,1.17-.47,2.08-.63,2.79-.15,.67-.27,1.22-.36,1.6-.84-.03-2.28-.19-3.22-.35,.35-1.99,1.36-6.52,2.07-9.72l.03-.14c1.47-6.6,2.3-11.05,.47-12.8-.79-.75-1.78-1.09-2.79-.97-1.61,.2-3.17,1.51-4.76,4.02-.28,.45-.79,1.3-1.44,2.37-2,3.32-6.67,11.08-8.01,12.19-1.09,.91-4.86,2.75-7.34,.7-2.12-1.75-2.02-3.79-1.63-7.89Z"/><path class="cls-1" d="M203.21,284.5c-9.17-7.71-17.6-15.23-17.75-15.36-.38-.3-1.74-1.25-3.09-.76-.45,.16-1.23,.62-1.5,1.87-.38,1.77-1.27,6.86-1.31,7.08l-.05,.3,.07,.3c.05,.19,.33,1.17,1.16,1.98,.46,.45,11.21,9.98,17.51,15.57l-20.6,1.09-.24,.03c-.39,.09-2.35,.6-2.81,2.29-.2,.75-.77,3.95-1.2,6.51-.18,1.07,.44,2.1,1.47,2.45,.6,.2,1.39,.28,2.4,.26,2.44-.06,26.41-1.19,27.47-1.24,.74-.06,1.77-.49,2.23-1.54,.23-.53,.43-1.34,.66-2.43,.74,.4,1.63,.98,1.96,1.29,.17,.38,.12,.88-.04,2.15l-.03,.23c-.02,.17-.14,.9-.31,1.89-1.38,8.21-1.32,8.37-1.16,8.86,.42,1.28,2.79,2.39,3.7,2.63l.26,.07c.51,.15,1.16,.33,1.85,.33,.51,0,1.03-.1,1.52-.4,.47-.28,1.08-.86,1.33-2.01,.02-.12,2.34-12.04,1.03-16.03-.88-2.68-3.93-8.5-14.53-17.42Zm10.66,32.85s-.02,.08-.03,.11c-.26,0-.77-.15-1.03-.22l-.3-.08c-.51-.14-1.21-.54-1.61-.83,.17-1.45,.85-5.52,1.17-7.39,.18-1.05,.31-1.83,.33-2l.03-.23c.21-1.61,.36-2.77-.36-4.04-.52-.93-4.07-3.28-5.56-3.06-.69,.1-1.24,.58-1.4,1.24-.07,.29-.15,.66-.23,1.07-.13,.61-.34,1.59-.49,2.06-2.24,.11-24.89,1.18-27.19,1.23-.35,0-.62,0-.83-.02,.52-3,.9-5.09,.98-5.43,.08-.09,.36-.23,.6-.31l23.06-1.22c.74-.04,1.38-.52,1.63-1.22,.25-.7,.05-1.47-.51-1.96h0c-8.64-7.66-18.9-16.77-19.37-17.22-.12-.12-.22-.27-.28-.4,.19-1.11,.77-4.34,1.12-6.07,.13,.11,8.57,7.64,17.75,15.36,10.42,8.77,13.01,14.18,13.64,16.1,.83,2.52-.48,11.53-1.11,14.53Z"/><path class="cls-1" d="M227.48,209.53l-3.97-.98c-1.21-.3-2.47,.44-2.79,1.65-.29,1.06-1.24,4.59-1.51,5.4-.64,1.98-1.41,3.08-2.04,2.9-1.9-.49-12.28-3.82-15.2-4.76l1.83-8.59c.13-.59,.01-1.19-.32-1.7-.33-.51-.84-.85-1.43-.97l-3.97-.81c-1.12-.23-2.21,.46-2.49,1.57l-1.98,7.95-3.77-1.04c-.62-.17-1.28-.08-1.84,.24-.55,.32-.95,.87-1.1,1.49l-1.58,6.58c-.3,1.25,.39,2.52,1.6,2.95l4.26,1.53-1.05,4.32c-.3,1.24,.42,2.48,1.64,2.84l3.5,1.02c.23,.07,.47,.1,.71,.1,.43,0,.85-.11,1.24-.33,.59-.33,1.02-.9,1.19-1.56l1.03-4.03,14.91,4.92c2.45,.86,7.73,1.22,10.17-3.52,2.39-4.64,4.16-12.32,4.59-14.65,.21-1.14-.51-2.25-1.63-2.53Zm-5.53,15.85c-1.89,3.68-6.45,2.18-6.66,2.11l-15.42-5.08c-.63-.21-1.33-.15-1.92,.17-.59,.32-1.02,.87-1.19,1.52l-1.06,4.14-2.64-.77,1.07-4.4c.27-1.12-.34-2.26-1.43-2.65l-4.49-1.61,1.37-5.72,3.66,1.01c.64,.18,1.31,.09,1.89-.24,.58-.33,.99-.87,1.17-1.53l1.91-7.67,2.6,.53-1.77,8.33c-.26,1.24,.44,2.47,1.65,2.86,3.18,1.03,13.72,4.41,15.75,4.93,1.67,.42,3.98-.07,5.51-4.82,.24-.75,.97-3.42,1.4-4.99l2.77,.69c-.57,2.76-2.14,9.22-4.19,13.2Z"/><path class="cls-1" d="M209.57,199.07c.43,.13,8.45,2.55,14.45,2.55,1.61,0,3.07-.17,4.2-.61,4.02-1.55,6.2-9.18,8.42-20.98,.35-1.86,.68-3.43,.96-4.77,.54-2.57,.89-4.26,.88-5.54-.02-1.44-1.08-2.81-2.47-3.17l-2.69-.7c-1.4-.37-2.82,.47-3.18,1.86-.6,2.3-1.95,7.77-3.14,12.59-1.02,4.14-2.08,8.43-2.19,8.81-.15,.41-.4,1.05-.54,1.42h-.14c-.46-.03-2.28-.41-3.37-.71,.38-1.86,1.27-5.95,2.1-9.66,1.21-5.41,3.05-13.63,3.14-14.02,.41-1.15,.04-2.71-1.77-3.42-1.31-.52-9.01-1.88-10.54-2.15-.15-.03-3.78-.62-6.91,2.46-2.98,2.94-6.08,13.32-6.63,22.21-.61,9.92,4.54,12.33,9.42,13.82Zm-6.53-13.64c.54-8.64,3.6-18.18,5.77-20.33,1.52-1.5,3.17-1.7,3.93-1.7,.26,0,.42,.02,.44,.03,4.36,.76,9.29,1.72,9.98,1.99,.01,0,.02,0,.04,.01-.17,.71-.78,3.37-3.17,14.1-2.45,10.94-2.41,11.1-2.3,11.53,.43,1.66,4.91,2.22,6.11,2.34h0c.75,.13,2.22-.01,2.93-1.35l.07-.14s.48-1.18,.71-1.84c.1-.29,.58-2.2,2.27-9.08,1.14-4.62,2.43-9.84,3.05-12.26l2.41,.63c.13,.03,.31,.27,.31,.41,.01,.96-.33,2.61-.82,4.9-.28,1.35-.62,2.95-.97,4.83-.99,5.25-3.3,17.54-6.61,18.82-2.92,1.12-10.82-.19-16.77-2.01-4.48-1.36-7.86-3.03-7.38-10.87Z"/><path class="cls-1" d="M210.18,189.66c1.04,.33,1.85,.56,2.45,.72,.24,.06,.48,.09,.72,.09,.5,0,.99-.14,1.43-.4,.64-.39,1.1-1.03,1.27-1.76l3.4-15.02c.17-.75,.02-1.54-.41-2.17-.43-.63-1.11-1.06-1.87-1.17l-3.1-.47c-1.52-.19-4.72,.36-5.89,3.79-1.13,3.31-2.12,9.41-2.22,10.56-.15,1.83,1.07,4.84,4.22,5.84Zm.74-15.46c.58-1.68,1.98-1.86,2.55-1.86,.09,0,.16,0,.2,0l2.92,.44-3.34,14.75c-.55-.15-1.28-.36-2.2-.65-1.96-.62-2.23-2.5-2.21-2.84,.08-1.03,1.03-6.82,2.07-9.85Z"/><path class="cls-1" d="M209.58,151.76l28.29,6.87c.23,.06,.47,.08,.71,.08,.57,0,1.15-.16,1.64-.48,.69-.44,1.18-1.16,1.34-1.96l1.11-5.55c.3-1.48-.62-2.93-2.09-3.29l-16.9-4.22c-.6-.15-1.13-.45-1.54-.88-1.03-1.07-2.24-2.96-2.21-5.9,.04-3.74,.56-5.82,1.72-6.74,.94-.75,2.55-.89,4.79-.42,6.74,1.41,14.58,3.03,17.6,3.65,.72,.15,1.46,0,2.07-.4,.61-.41,1.03-1.03,1.17-1.75l1.33-6.73c.28-1.42-.61-2.79-2.02-3.11l-15-3.43c-.24-.05-5.84-1.15-6.18-5.82-.37-5.01,1.58-7.24,2.19-7.8,.61-.57,1.09-.67,1.26-.64,1.12,.17,11.4,2.13,20.65,3.92,1.34,.26,2.64-.58,2.95-1.92l1.45-6.26c.16-.68,.03-1.4-.35-1.98-.38-.58-.98-.99-1.67-1.13l-19.95-3.89c-.26-.05-6.45-1.11-9.73,2.09-3.56,3.48-5.92,11.02-6.15,16.31-.18,4.27,.49,6.61,1.32,8.03-.83,.53-1.65,1.28-2.49,2.26-1.6,1.88-3.61,6.64-4.23,12.62-.31,3.01,.07,5.26,.59,6.83-.39,.04-.76,.17-1.1,.38-.58,.36-.98,.93-1.13,1.6l-1.44,6.44c-.32,1.44,.59,2.9,2.02,3.25Zm9.32-34.12l.43,1.38-.44-1.38s.01,0,.02,0Zm-7.15,25.4l1.03,.24c.69,.16,1.41-.11,1.82-.68,.41-.57,.44-1.33,.06-1.94-.48-.77-1.56-3.02-1.14-7.1,.59-5.7,2.5-9.8,3.56-11.05,.97-1.14,1.87-1.85,2.69-2.11,.65-.21,1.05-.6,1.19-1.16,.21-.84-.35-1.4-.55-1.61-1.12-1.14-1.62-3.54-1.46-7.16,.22-5.3,2.59-11.74,5.28-14.36,1.84-1.79,5.82-1.56,7.18-1.32l19.6,3.82-1.3,5.6c-4.86-.94-18.99-3.66-20.43-3.87-1.21-.18-2.5,.31-3.65,1.39-2.26,2.1-3.42,5.89-3.11,10.14,.41,5.54,5.77,7.95,8.49,8.45l14.72,3.37-1.25,6.36c-3.12-.64-10.81-2.23-17.43-3.61-3.18-.67-5.53-.34-7.2,1-2.4,1.93-2.76,5.45-2.8,8.97-.04,3.92,1.62,6.48,3.02,7.94,.79,.82,1.8,1.4,2.93,1.68l16.84,4.14-1.11,5.55-.16,.1-28.14-6.83,1.33-5.94Z"/></g><g><path class="cls-2" d="M25.03,496.18c-3.67,0-7.03-.56-10.07-1.67-3.05-1.12-5.66-2.81-7.85-5.1-2.19-2.29-3.86-5.15-5.02-8.54s-1.74-7.3-1.74-11.71c0-4.18,.59-7.93,1.76-11.25,1.17-3.31,2.85-6.14,5.04-8.49,2.11-2.28,4.72-4.03,7.81-5.26,3.09-1.24,6.47-1.85,10.14-1.85,1.74,0,3.42,.13,5.02,.38,1.6,.26,3.14,.61,4.6,1.05,1.16,.34,2.46,.83,3.89,1.45,1.43,.61,2.59,1.14,3.47,1.58v8.33h-.59c-.86-.76-1.75-1.49-2.67-2.17-.92-.68-2.21-1.43-3.89-2.21-1.39-.7-3-1.28-4.81-1.75-1.81-.46-3.77-.7-5.86-.7-5,0-9.03,1.89-12.11,5.65-3.08,3.77-4.62,8.77-4.62,15.02,0,3.49,.41,6.53,1.22,9.13,.82,2.61,1.99,4.81,3.52,6.62,1.49,1.79,3.28,3.16,5.39,4.09,2.1,.94,4.47,1.41,7.09,1.41,1.95,0,3.89-.14,5.83-.42,1.93-.28,3.55-.7,4.88-1.26v-13.42s-11.99,0-11.99,0v-6.07s18.83,0,18.83,0v22.67c-.89,.39-2.07,.89-3.54,1.5-1.48,.6-2.85,1.08-4.13,1.43-1.7,.51-3.23,.89-4.6,1.15-1.38,.25-3.04,.39-4.99,.39Z"/><path class="cls-2" d="M67.35,496.08c-6.21,0-11.02-1.75-14.45-5.25-3.43-3.5-5.15-8.46-5.15-14.9,0-6.35,1.67-11.4,4.99-15.15,3.32-3.75,7.67-5.63,13.04-5.63,2.42,0,4.56,.35,6.42,1.05,1.86,.7,3.49,1.79,4.88,3.28,1.39,1.49,2.47,3.31,3.21,5.46,.74,2.15,1.12,4.78,1.12,7.89v3.56s-26.98,0-26.98,0c0,4.53,1.14,7.99,3.42,10.38,2.28,2.4,5.43,3.59,9.45,3.59,1.45,0,2.86-.16,4.24-.49s2.63-.74,3.75-1.26c1.19-.53,2.19-1.05,3-1.55,.81-.5,1.49-.97,2.02-1.41h.38v7.15c-.76,.3-1.72,.68-2.85,1.13-1.14,.45-2.17,.81-3.07,1.06-1.28,.35-2.44,.62-3.47,.81s-2.34,.28-3.92,.28Zm7.67-24.72c-.05-1.77-.26-3.29-.63-4.57-.37-1.28-.9-2.36-1.6-3.24-.77-.98-1.75-1.72-2.95-2.23-1.2-.51-2.68-.77-4.44-.77-1.75,0-3.23,.27-4.45,.79-1.22,.53-2.33,1.29-3.33,2.28-.98,1.03-1.72,2.16-2.23,3.4s-.84,2.69-.98,4.34h20.61Z"/><path class="cls-2" d="M118.64,495.17h-6.55s0-22.17,0-22.17c0-1.79-.09-3.45-.26-5-.18-1.55-.51-2.78-1-3.71-.53-.98-1.28-1.71-2.23-2.18-.95-.48-2.26-.72-3.9-.72s-3.31,.44-5.04,1.31c-1.73,.87-3.42,2-5.07,3.4v29.08s-6.55,0-6.55,0v-38.95s6.55,0,6.55,0v4.32c1.95-1.74,3.88-3.07,5.79-4.01,1.91-.93,3.92-1.39,6.03-1.39,3.84,0,6.83,1.26,9,3.78,2.16,2.52,3.24,6.17,3.24,10.96v25.28Z"/><path class="cls-2" d="M144.75,496.08c-6.21,0-11.02-1.75-14.45-5.25-3.43-3.5-5.15-8.46-5.15-14.9,0-6.35,1.67-11.4,4.99-15.15,3.32-3.75,7.67-5.63,13.04-5.63,2.42,0,4.56,.35,6.42,1.05,1.86,.7,3.49,1.79,4.88,3.28,1.39,1.49,2.47,3.31,3.21,5.46,.74,2.15,1.12,4.78,1.12,7.89v3.56s-26.98,0-26.98,0c0,4.53,1.14,7.99,3.42,10.38,2.28,2.4,5.43,3.59,9.45,3.59,1.45,0,2.86-.16,4.24-.49s2.63-.74,3.75-1.26c1.19-.53,2.19-1.05,3-1.55,.81-.5,1.49-.97,2.02-1.41h.38v7.15c-.76,.3-1.72,.68-2.85,1.13-1.14,.45-2.17,.81-3.07,1.06-1.28,.35-2.44,.62-3.47,.81-1.03,.18-2.34,.28-3.92,.28Zm7.67-24.72c-.05-1.77-.26-3.29-.63-4.57-.37-1.28-.9-2.36-1.6-3.24-.77-.98-1.75-1.72-2.95-2.23-1.2-.51-2.68-.77-4.44-.77-1.75,0-3.23,.27-4.45,.79-1.22,.53-2.33,1.29-3.33,2.28-.98,1.03-1.72,2.16-2.23,3.4-.51,1.24-.84,2.69-.98,4.34h20.61Z"/><path class="cls-2" d="M186.07,463.27h-.35c-.49-.14-1.01-.23-1.55-.27-.55-.03-1.2-.05-1.97-.05-1.77,0-3.52,.38-5.27,1.15-1.74,.76-3.39,1.9-4.95,3.41v27.65s-6.55,0-6.55,0v-38.95s6.55,0,6.55,0v5.79c2.4-2.12,4.48-3.61,6.26-4.48,1.78-.87,3.51-1.31,5.18-1.31,.67,0,1.18,.02,1.52,.06,.34,.03,.72,.08,1.13,.16v6.83Z"/><path class="cls-2" d="M211.69,491.02c-.53,.39-1.25,.94-2.14,1.65s-1.76,1.27-2.6,1.69c-1.16,.6-2.28,1.06-3.37,1.39-1.08,.32-2.59,.48-4.55,.48-1.61,0-3.13-.3-4.57-.9-1.44-.61-2.71-1.46-3.8-2.55-1.05-1.07-1.89-2.39-2.51-3.96-.63-1.57-.94-3.23-.94-4.97,0-2.69,.57-4.99,1.71-6.88,1.14-1.9,2.94-3.4,5.41-4.51,2.19-1,4.77-1.69,7.74-2.08,2.97-.38,6.18-.67,9.62-.85v-1.26c0-1.53-.23-2.78-.7-3.71-.46-.94-1.12-1.67-1.95-2.18-.84-.53-1.86-.89-3.07-1.06-1.21-.17-2.45-.26-3.73-.26-1.52,0-3.29,.23-5.34,.68-2.05,.46-4.09,1.11-6.14,1.97h-.38v-6.66c1.2-.34,2.93-.73,5.19-1.15,2.26-.42,4.49-.63,6.69-.63,2.68,0,4.93,.21,6.76,.63,1.84,.42,3.49,1.17,4.95,2.26,1.42,1.07,2.48,2.45,3.18,4.15,.7,1.7,1.04,3.77,1.04,6.21v26.64s-6.52,0-6.52,0v-4.15Zm0-5.44v-10.81c-1.56,.14-3.52,.34-5.91,.58-2.38,.25-4.31,.59-5.77,1.03-1.75,.53-3.19,1.35-4.32,2.45-1.14,1.1-1.71,2.64-1.71,4.62,0,2.23,.63,3.92,1.88,5.06,1.26,1.13,3.09,1.71,5.51,1.71,2.07,0,3.94-.45,5.62-1.34,1.67-.89,3.24-1.99,4.7-3.29Z"/><path class="cls-2" d="M234.1,495.17h-6.55s0-54.25,0-54.25h6.55s0,54.25,0,54.25Z"/><path class="cls-2" d="M260.95,495.17l17.5-51.92h8.51s17.5,51.92,17.5,51.92h-7.28s-4.71-14.5-4.71-14.5h-19.83s-4.71,14.5-4.71,14.5h-6.97Zm29.6-20.4l-8.01-24.47-7.99,24.47h16Z"/><path class="cls-2" d="M338.84,495.17h-6.55v-4.32c-2.02,1.77-3.94,3.11-5.75,4.03-1.81,.92-3.84,1.38-6.07,1.38-1.69,0-3.29-.28-4.79-.84-1.5-.56-2.8-1.44-3.92-2.65-1.12-1.2-1.98-2.73-2.6-4.56s-.93-4.07-.93-6.69v-25.28s6.55,0,6.55,0v22.17c0,2.07,.08,3.78,.23,5.15,.15,1.36,.49,2.55,1.03,3.58,.53,1,1.26,1.73,2.18,2.19,.92,.46,2.24,.7,3.96,.7,1.6,0,3.31-.46,5.12-1.36,1.81-.91,3.48-2.03,4.99-3.35v-29.08s6.55,0,6.55,0v38.95Z"/><path class="cls-2" d="M360.1,495.94c-3.58,0-6.37-1.01-8.37-3.05s-3-5.25-3-9.64v-21.58s-4.42,0-4.42,0v-5.44h4.42s0-11.19,0-11.19h6.55v11.19s12.06,0,12.06,0v5.44h-12.06s0,18.52,0,18.52c0,1.98,.04,3.5,.1,4.57,.08,1.06,.34,2.07,.81,2.99,.39,.82,1.03,1.43,1.92,1.83,.88,.41,2.08,.61,3.59,.61,1.07,0,2.1-.16,3.11-.48,1-.31,1.72-.58,2.16-.78h.39v5.89c-1.23,.35-2.48,.62-3.75,.82-1.27,.2-2.43,.3-3.51,.3Z"/><path class="cls-2" d="M404.24,475.71c0,6.55-1.58,11.61-4.74,15.18-3.16,3.57-7.37,5.35-12.61,5.35-5.42,0-9.68-1.84-12.78-5.52-3.11-3.68-4.65-8.69-4.65-15.01,0-6.51,1.6-11.56,4.79-15.17,3.19-3.6,7.4-5.4,12.64-5.4,5.25,0,9.46,1.79,12.61,5.39,3.16,3.59,4.74,8.65,4.74,15.18Zm-6.76,0c0-5.05-.92-8.79-2.76-11.25s-4.45-3.68-7.84-3.68-6.05,1.22-7.9,3.68c-1.85,2.45-2.78,6.2-2.78,11.25,0,4.88,.93,8.58,2.78,11.11,1.84,2.52,4.48,3.78,7.9,3.78,3.37,0,5.98-1.24,7.82-3.71,1.85-2.48,2.78-6.2,2.78-11.18Z"/><path class="cls-2" d="M455.18,495.17v-22.52c0-1.79-.07-3.45-.21-4.97-.14-1.52-.43-2.71-.87-3.57-.47-.93-1.13-1.62-1.99-2.06s-2.02-.67-3.49-.67c-1.35,0-2.8,.42-4.34,1.24-1.55,.82-3.14,2.02-4.79,3.58,.03,.39,.05,.86,.09,1.41,.03,.55,.05,1.19,.05,1.94v25.62s-6.55,0-6.55,0v-22.52c0-1.79-.07-3.45-.21-4.97-.14-1.52-.43-2.71-.87-3.57-.46-.93-1.12-1.62-1.98-2.06-.86-.44-2.02-.67-3.49-.67s-2.9,.44-4.46,1.33c-1.56,.88-3.07,2.01-4.53,3.38v29.08s-6.55,0-6.55,0v-38.95s6.55,0,6.55,0v4.32c1.72-1.72,3.42-3.05,5.11-3.99,1.69-.94,3.54-1.41,5.56-1.41,2.3,0,4.34,.52,6.12,1.57,1.78,1.04,3.13,2.76,4.06,5.16,1.98-2.21,3.9-3.89,5.79-5.02,1.88-1.14,3.93-1.71,6.14-1.71,1.67,0,3.19,.26,4.56,.79,1.38,.52,2.57,1.36,3.59,2.52,1.05,1.19,1.85,2.66,2.42,4.43,.57,1.77,.86,3.99,.86,6.66v25.62s-6.55,0-6.55,0Z"/><path class="cls-2" d="M492.69,491.02c-.53,.39-1.25,.94-2.14,1.65-.89,.71-1.76,1.27-2.6,1.69-1.16,.6-2.28,1.06-3.37,1.39-1.08,.32-2.59,.48-4.55,.48-1.61,0-3.13-.3-4.57-.9-1.44-.61-2.71-1.46-3.8-2.55-1.05-1.07-1.89-2.39-2.51-3.96-.63-1.57-.94-3.23-.94-4.97,0-2.69,.57-4.99,1.71-6.88,1.14-1.9,2.94-3.4,5.41-4.51,2.19-1,4.77-1.69,7.74-2.08,2.97-.38,6.18-.67,9.62-.85v-1.26c0-1.53-.23-2.78-.7-3.71-.46-.94-1.12-1.67-1.95-2.18-.84-.53-1.86-.89-3.07-1.06-1.21-.17-2.45-.26-3.73-.26-1.52,0-3.29,.23-5.34,.68-2.05,.46-4.09,1.11-6.14,1.97h-.38v-6.66c1.2-.34,2.93-.73,5.19-1.15,2.26-.42,4.49-.63,6.69-.63,2.68,0,4.93,.21,6.76,.63,1.84,.42,3.49,1.17,4.95,2.26,1.42,1.07,2.48,2.45,3.18,4.15,.7,1.7,1.04,3.77,1.04,6.21v26.64s-6.52,0-6.52,0v-4.15Zm0-5.44v-10.81c-1.56,.14-3.52,.34-5.91,.58-2.38,.25-4.31,.59-5.77,1.03-1.75,.53-3.19,1.35-4.32,2.45-1.14,1.1-1.71,2.64-1.71,4.62,0,2.23,.63,3.92,1.88,5.06,1.26,1.13,3.09,1.71,5.51,1.71,2.07,0,3.94-.45,5.62-1.34s3.24-1.99,4.7-3.29Z"/><path class="cls-2" d="M520.2,495.94c-3.58,0-6.37-1.01-8.37-3.05-2-2.03-3-5.25-3-9.64v-21.58s-4.42,0-4.42,0v-5.44h4.42s0-11.19,0-11.19h6.55v11.19s12.06,0,12.06,0v5.44h-12.06s0,18.52,0,18.52c0,1.98,.04,3.5,.1,4.57,.08,1.06,.34,2.07,.81,2.99,.39,.82,1.03,1.43,1.92,1.83,.88,.41,2.08,.61,3.59,.61,1.07,0,2.1-.16,3.11-.48,1-.31,1.72-.58,2.16-.78h.39v5.89c-1.23,.35-2.48,.62-3.75,.82-1.27,.2-2.43,.3-3.51,.3Z"/><path class="cls-2" d="M539.45,449.71h-7.47v-6.8h7.47v6.8Zm-.46,45.46h-6.55s0-38.95,0-38.95h6.55s0,38.95,0,38.95Z"/><path class="cls-2" d="M580.65,475.71c0,6.55-1.58,11.61-4.74,15.18-3.16,3.57-7.37,5.35-12.61,5.35-5.42,0-9.68-1.84-12.78-5.52-3.11-3.68-4.65-8.69-4.65-15.01s1.6-11.56,4.79-15.17c3.19-3.6,7.4-5.4,12.64-5.4,5.25,0,9.46,1.79,12.61,5.39,3.16,3.59,4.74,8.65,4.74,15.18Zm-6.76,0c0-5.05-.92-8.79-2.76-11.25-1.84-2.45-4.45-3.68-7.84-3.68-3.42,0-6.05,1.22-7.9,3.68-1.85,2.45-2.78,6.2-2.78,11.25s.93,8.58,2.78,11.11c1.84,2.52,4.48,3.78,7.9,3.78,3.37,0,5.98-1.24,7.82-3.71,1.85-2.48,2.78-6.2,2.78-11.18Z"/><path class="cls-2" d="M618,495.17h-6.55s0-22.17,0-22.17c0-1.79-.09-3.45-.26-5-.18-1.55-.51-2.78-1-3.71-.53-.98-1.28-1.71-2.23-2.18s-2.26-.72-3.9-.72-3.31,.44-5.04,1.31c-1.73,.87-3.42,2-5.07,3.4v29.08s-6.55,0-6.55,0v-38.95s6.55,0,6.55,0v4.32c1.95-1.74,3.88-3.07,5.79-4.01,1.91-.93,3.92-1.39,6.03-1.39,3.84,0,6.83,1.26,9,3.78,2.16,2.52,3.24,6.17,3.24,10.96v25.28Z"/><path class="cls-2" d="M17.77,581.79c-3.77,0-6.97-.39-9.6-1.17-2.64-.78-5.12-1.74-7.44-2.88v-8.65h.48c2.28,2.14,4.86,3.8,7.75,4.97,2.88,1.17,5.65,1.76,8.33,1.76,3.81,0,6.69-.8,8.65-2.39,1.95-1.59,2.93-3.69,2.93-6.29,0-2.07-.51-3.75-1.53-5.05-1.02-1.3-2.65-2.26-4.88-2.9-1.6-.46-3.07-.84-4.39-1.15-1.32-.3-2.99-.71-4.99-1.22-1.79-.46-3.39-1.05-4.8-1.77-1.42-.72-2.68-1.66-3.77-2.83-1.07-1.13-1.9-2.48-2.5-4.03-.59-1.55-.89-3.33-.89-5.35,0-4.21,1.64-7.73,4.92-10.58,3.27-2.85,7.45-4.27,12.55-4.27,2.9,0,5.65,.29,8.24,.87,2.59,.58,5,1.4,7.2,2.47v8.27h-.52c-1.65-1.52-3.77-2.83-6.35-3.96-2.57-1.13-5.29-1.69-8.12-1.69-3.21,0-5.8,.75-7.78,2.25-1.97,1.5-2.96,3.47-2.96,5.91,0,2.21,.58,3.96,1.74,5.26,1.16,1.3,2.85,2.26,5.06,2.86,1.46,.39,3.25,.84,5.36,1.34,2.12,.5,3.87,.96,5.27,1.38,3.58,1.09,6.19,2.74,7.84,4.95,1.65,2.21,2.48,4.93,2.48,8.16,0,2.02-.41,4.02-1.24,6-.82,1.98-1.98,3.65-3.47,5.02-1.67,1.51-3.56,2.68-5.66,3.49s-4.74,1.22-7.9,1.22Z"/><path class="cls-2" d="M72.16,541.91l-20.95,53.31h-7.01s6.97-16.25,6.97-16.25l-14.15-37.06h7.08s10.63,28.84,10.63,28.84l10.6-28.84h6.83Z"/><path class="cls-2" d="M87.64,581.79c-2.61,0-5.04-.34-7.3-1.04-2.27-.7-4.15-1.45-5.64-2.23v-7.36h.35c.56,.44,1.21,.93,1.97,1.46s1.76,1.09,3.02,1.67c1.12,.51,2.34,.96,3.68,1.36,1.34,.4,2.73,.6,4.17,.6,1.04,0,2.16-.12,3.35-.37,1.18-.24,2.07-.55,2.65-.93,.81-.53,1.39-1.1,1.76-1.71s.54-1.51,.54-2.72c0-1.56-.42-2.73-1.27-3.52-.85-.79-2.36-1.45-4.51-1.98-.84-.21-1.93-.45-3.28-.73-1.34-.28-2.59-.58-3.73-.91-2.97-.86-5.13-2.19-6.48-3.99-1.35-1.8-2.02-3.98-2.02-6.54,0-3.51,1.32-6.37,3.97-8.58,2.65-2.21,6.17-3.31,10.57-3.31,2.16,0,4.33,.27,6.52,.8,2.19,.54,4.02,1.21,5.51,2.03v7h-.35c-1.67-1.32-3.54-2.37-5.6-3.14-2.05-.77-4.13-1.15-6.22-1.15-2.17,0-3.99,.46-5.48,1.36s-2.23,2.28-2.23,4.11c0,1.63,.44,2.84,1.32,3.64,.88,.8,2.3,1.46,4.25,1.97,.98,.25,2.06,.5,3.26,.75,1.2,.24,2.46,.53,3.78,.85,2.88,.72,5.05,1.92,6.5,3.59,1.45,1.67,2.17,3.95,2.17,6.83,0,1.67-.33,3.26-.99,4.76-.67,1.5-1.64,2.78-2.92,3.85-1.39,1.16-2.97,2.04-4.72,2.65-1.76,.6-3.96,.9-6.61,.9Z"/><path class="cls-2" d="M120.76,581.62c-3.58,0-6.37-1.01-8.37-3.05s-3-5.25-3-9.64v-21.58s-4.42,0-4.42,0v-5.44h4.42s0-11.19,0-11.19h6.55v11.19s12.06,0,12.06,0v5.44h-12.06s0,18.52,0,18.52c0,1.98,.04,3.5,.1,4.57,.08,1.06,.34,2.07,.81,2.99,.39,.82,1.03,1.43,1.92,1.83,.88,.41,2.08,.61,3.59,.61,1.07,0,2.1-.16,3.11-.48,1-.31,1.72-.58,2.16-.78h.39v5.89c-1.23,.35-2.48,.62-3.75,.82-1.27,.2-2.43,.3-3.51,.3Z"/><path class="cls-2" d="M149.77,581.76c-6.21,0-11.02-1.75-14.45-5.25-3.43-3.5-5.15-8.46-5.15-14.9,0-6.35,1.67-11.4,4.99-15.15,3.32-3.75,7.67-5.63,13.04-5.63,2.42,0,4.56,.35,6.42,1.05s3.49,1.79,4.88,3.28c1.39,1.49,2.47,3.31,3.21,5.46,.74,2.15,1.12,4.78,1.12,7.89v3.56s-26.98,0-26.98,0c0,4.53,1.14,7.99,3.42,10.38,2.28,2.4,5.43,3.59,9.45,3.59,1.45,0,2.86-.16,4.24-.49s2.63-.74,3.75-1.26c1.19-.53,2.19-1.05,3-1.55,.81-.5,1.49-.97,2.02-1.41h.38v7.15c-.76,.3-1.72,.68-2.85,1.13-1.14,.45-2.17,.81-3.07,1.06-1.28,.35-2.44,.62-3.47,.81s-2.34,.28-3.92,.28Zm7.67-24.72c-.05-1.77-.26-3.29-.63-4.57-.37-1.28-.9-2.36-1.6-3.24-.77-.98-1.75-1.72-2.95-2.23-1.2-.51-2.68-.77-4.44-.77-1.75,0-3.23,.27-4.45,.79-1.22,.53-2.33,1.29-3.33,2.28-.98,1.03-1.72,2.16-2.23,3.4-.51,1.24-.84,2.69-.98,4.34h20.61Z"/><path class="cls-2" d="M214.66,580.85v-22.52c0-1.79-.07-3.45-.21-4.97-.14-1.52-.43-2.71-.87-3.57-.47-.93-1.13-1.62-1.99-2.06-.86-.44-2.02-.67-3.49-.67-1.35,0-2.8,.42-4.34,1.24-1.55,.82-3.14,2.02-4.79,3.58,.03,.39,.05,.86,.09,1.41,.03,.55,.05,1.19,.05,1.94v25.62s-6.55,0-6.55,0v-22.52c0-1.79-.07-3.45-.21-4.97s-.43-2.71-.87-3.57c-.46-.93-1.12-1.62-1.98-2.06-.86-.44-2.02-.67-3.49-.67s-2.9,.44-4.46,1.33c-1.56,.88-3.07,2.01-4.53,3.38v29.08s-6.55,0-6.55,0v-38.95s6.55,0,6.55,0v4.32c1.72-1.72,3.42-3.05,5.11-3.99,1.69-.94,3.54-1.41,5.56-1.41,2.3,0,4.34,.52,6.12,1.57,1.78,1.04,3.13,2.76,4.06,5.16,1.98-2.21,3.9-3.89,5.79-5.02,1.88-1.14,3.93-1.71,6.14-1.71,1.67,0,3.19,.26,4.56,.79,1.38,.52,2.57,1.36,3.59,2.52,1.05,1.19,1.85,2.66,2.42,4.43s.86,3.99,.86,6.66v25.62s-6.55,0-6.55,0Z"/><path class="cls-2" d="M240.94,581.79c-2.61,0-5.04-.34-7.3-1.04-2.27-.7-4.15-1.45-5.64-2.23v-7.36h.35c.56,.44,1.21,.93,1.97,1.46s1.76,1.09,3.02,1.67c1.12,.51,2.34,.96,3.68,1.36,1.34,.4,2.73,.6,4.17,.6,1.04,0,2.16-.12,3.35-.37,1.18-.24,2.07-.55,2.65-.93,.81-.53,1.39-1.1,1.76-1.71,.36-.6,.54-1.51,.54-2.72,0-1.56-.42-2.73-1.27-3.52-.85-.79-2.36-1.45-4.51-1.98-.84-.21-1.93-.45-3.28-.73-1.34-.28-2.59-.58-3.73-.91-2.97-.86-5.13-2.19-6.48-3.99s-2.02-3.98-2.02-6.54c0-3.51,1.32-6.37,3.97-8.58,2.65-2.21,6.17-3.31,10.57-3.31,2.16,0,4.33,.27,6.52,.8,2.19,.54,4.02,1.21,5.51,2.03v7h-.35c-1.67-1.32-3.54-2.37-5.6-3.14-2.05-.77-4.13-1.15-6.22-1.15-2.17,0-3.99,.46-5.48,1.36-1.49,.91-2.23,2.28-2.23,4.11,0,1.63,.44,2.84,1.32,3.64,.88,.8,2.3,1.46,4.25,1.97,.98,.25,2.06,.5,3.26,.75,1.2,.24,2.46,.53,3.78,.85,2.88,.72,5.05,1.92,6.5,3.59,1.45,1.67,2.17,3.95,2.17,6.83,0,1.67-.33,3.26-.99,4.76-.67,1.5-1.64,2.78-2.92,3.85-1.39,1.16-2.97,2.04-4.72,2.65-1.76,.6-3.96,.9-6.61,.9Z"/></g></svg>